<svg viewBox="0 0 560 560" width="560"><g><g transform="translate(280,280)"><path fill="red" stroke="white" d="M1.5308084989341916e-14,-250A250,250,0,0,1,35.082011088171036,-247.52626627897382L14.032804435268414,-99.01050651158953A100,100,0,0,0,6.123233995736766e-15,-100Z"></path><text fill="black" x="12.309191298085146" y="-174.56655982629417">Capital expenditure</text></g><g transform="translate(280,280)"><path fill="red" stroke="white" d="M35.082011088171036,-247.52626627897382A250,250,0,0,1,44.81019866511686,-245.9513083835757L17.924079466046745,-98.38052335343028A100,100,0,0,0,14.032804435268414,-99.01050651158953Z"></path><text fill="black" x="27.967706283772454" y="-172.75070884145347">Other non-voted current expenditure</text></g><g transform="translate(280,280)"><path fill="red" stroke="white" d="M44.81019866511686,-245.9513083835757A250,250,0,0,1,72.17024517466704,-239.3563362675583L28.868098069866814,-95.74253450702332A100,100,0,0,0,17.924079466046745,-98.38052335343028Z"></path><text fill="black" x="41.00816921693866" y="-170.1273936127716">Contribution to EU budget</text></g><g transform="translate(280,280)"><path fill="red" stroke="white" d="M72.17024517466704,-239.3563362675583A250,250,0,0,1,90.58836820893484,233.01018764260598L36.23534728357394,93.20407505704239A100,100,0,0,0,28.868098069866814,-95.74253450702332Z"></path><text fill="black" x="174.86712425392247" y="-6.818273620443659">Voted expenditure</text></g><g transform="translate(280,280)"><path fill="yellow" stroke="white" d="M90.58836820893484,233.01018764260598A250,250,0,0,1,-3.0410479606007774,249.98150337035204L-1.2164191842403111,99.99260134814082A100,100,0,0,0,36.23534728357394,93.20407505704239Z"></path><text fill="black" x="31.211992213313057" y="172.19411006790008">Servicing of national debt</text></g><g transform="translate(280,280)"><path fill="yellow" stroke="white" d="M-3.0410479606007774,249.98150337035204A250,250,0,0,1,-17.10701740510975,249.4140131498254L-6.8428069620439,99.76560525993015A100,100,0,0,0,-1.2164191842403111,99.99260134814082Z"></path><text fill="black" x="-7.05461951019255" y="174.85774888052975">Deficit for the year</text></g><g transform="translate(280,280)"><path fill="green" stroke="white" d="M-17.10701740510975,249.4140131498254A250,250,0,0,1,-43.646195559550094,246.16053626277613L-17.458478223820038,98.46421450511045A100,100,0,0,0,-6.8428069620439,99.76560525993015Z"></path><text fill="black" x="-21.294093187537396" y="173.69963038337323">Banking stabilisation measure</text></g><g transform="translate(280,280)"><path fill="green" stroke="white" d="M-43.646195559550094,246.16053626277613A250,250,0,0,1,-72.38589349128378,239.2912084124039L-28.954357396513515,95.71648336496156A100,100,0,0,0,-17.458478223820038,98.46421450511045Z"></path><text fill="black" x="-40.68233751814821" y="170.205603356821">Loan repayment and other capital receipts</text></g><g transform="translate(280,280)"><path fill="green" stroke="white" d="M-72.38589349128378,239.2912084124039A250,250,0,0,1,-73.30174104072334,239.01224813887413L-29.320696416289337,95.60489925554964A100,100,0,0,0,-28.954357396513515,95.71648336496156Z"></path><text fill="black" x="-50.990765562107626" y="167.4065166813711">EU receipts</text></g><g transform="translate(280,280)"><path fill="green" stroke="white" d="M-73.30174104072334,239.01224813887413A250,250,0,0,1,-90.58836820893481,233.01018764260598L-36.23534728357393,93.20407505704239A100,100,0,0,0,-29.320696416289337,95.60489925554964Z"></path><text fill="black" x="-57.39999214641109" y="165.31860422103722">Other non-tax current revenue (including Dividends and Receipts from Local Government)</text></g><g transform="translate(280,280)"><path fill="green" stroke="white" d="M-90.58836820893481,233.01018764260598A250,250,0,0,1,-113.70330997156637,222.64670961303224L-45.48132398862655,89.0586838452129A100,100,0,0,0,-36.23534728357393,93.20407505704239Z"></path><text fill="black" x="-71.59403049631777" y="159.6849861361184">Central Bank surplus</text></g><g transform="translate(280,280)"><path fill="green" stroke="white" d="M-113.70330997156637,222.64670961303224A250,250,0,0,1,-146.11586136765496,202.85500993761096L-58.446344547061976,81.14200397504439A100,100,0,0,0,-45.48132398862655,89.0586838452129Z"></path><text fill="black" x="-91.2001637251908" y="149.35705586445653">Other tax revenue</text></g><g transform="translate(280,280)"><path fill="green" stroke="white" d="M-146.11586136765496,202.85500993761096A250,250,0,0,1,-202.6573330155539,146.38990871990768L-81.06293320622156,58.55596348796307A100,100,0,0,0,-58.446344547061976,81.14200397504439Z"></path><text fill="black" x="-123.66003184147513" y="123.8272850585256">Excise Duty</text></g><g transform="translate(280,280)"><path fill="green" stroke="white" d="M-202.6573330155539,146.38990871990768A250,250,0,0,1,-244.56885837630378,51.82734329011523L-97.82754335052152,20.73093731604609A100,100,0,0,0,-81.06293320622156,58.55596348796307Z"></path><text fill="black" x="-159.98995208550588" y="70.90990926293398">Corporation Tax</text></g><g transform="translate(280,280)"><path fill="green" stroke="white" d="M-244.56885837630378,51.82734329011523A250,250,0,0,1,-220.64105581819774,-117.54796675158167L-88.2564223272791,-47.019186700632666A100,100,0,0,0,-97.82754335052152,20.73093731604609Z"></path><text fill="black" x="-173.27943282392349" y="-24.479341498892204">VAT</text></g><g transform="translate(280,280)"><path fill="green" stroke="white" d="M-220.64105581819774,-117.54796675158167A250,250,0,0,1,-4.5924254968025744e-14,-250L-1.8369701987210297e-14,-100A100,100,0,0,0,-88.2564223272791,-47.019186700632666Z"></path><text fill="black" x="-90.070455957909" y="-150.04103759816638">Income Tax</text></g></g></svg>
